<?xml version="1.0" encoding="UTF-8"?>
<svg xmlns="http://www.w3.org/2000/svg" xmlns:xlink="http://www.w3.org/1999/xlink" width="200px" height="200px" viewBox="0 0 200 200" version="1.1">
<g id="surface1">
<path style=" stroke:none;fill-rule:nonzero;fill:rgb(25.882354%,72.156864%,53.333336%);fill-opacity:1;" d="M 157.765625 0.777344 L 43.5 0.777344 C 20.148438 0.777344 0.777344 20.148438 0.777344 43.5 L 0.777344 157.765625 C 0.777344 181.121094 20.148438 200 43.5 200 L 157.765625 200 C 181.121094 200 200 181.117188 200 157.765625 L 200 43.5 C 200 20.148438 181.117188 0.777344 157.765625 0.777344 Z M 157.765625 0.777344 "/>
<path style=" stroke:none;fill-rule:nonzero;fill:rgb(100%,100%,100%);fill-opacity:1;" d="M 55.808594 144.054688 L 69.242188 144.054688 L 88.980469 90.71875 L 80.640625 150.160156 L 94.074219 150.160156 L 108.011719 50.625 L 94.578125 50.625 L 65.277344 121.253906 L 53.058594 50.625 L 39.625 50.625 L 25.6875 150.160156 L 39.121094 150.160156 L 47.460938 90.515625 L 55.808594 144.058594 Z M 145.070312 150.160156 L 129.5 150.160156 C 119.621094 150.160156 112.796875 142.21875 114.226562 132.355469 L 123.175781 68.339844 C 124.507812 58.554688 133.554688 50.625 143.433594 50.625 L 157.570312 50.625 C 168.671875 50.625 176.503906 59.683594 174.875 70.871094 L 173.960938 77.492188 L 160.636719 77.492188 L 161.753906 69.453125 C 162.464844 64.667969 159.207031 61.003906 154.519531 61.003906 L 144.140625 61.003906 C 140.476562 61.003906 137.125 63.949219 136.617188 67.609375 L 127.453125 133.058594 C 126.945312 136.722656 129.386719 139.773438 133.050781 139.773438 L 143.433594 139.773438 C 148.117188 139.773438 152.492188 136.011719 153.105469 131.328125 L 154.929688 118.503906 L 168.269531 118.503906 L 166.433594 131.328125 C 165.015625 141.707031 155.453125 150.15625 145.070312 150.15625 Z M 145.070312 150.160156 "/>
</g>
</svg>
